<svg xmlns="http://www.w3.org/2000/svg" viewBox="0 0 600 640"><defs><radialGradient id="b"><stop stop-color="#593044"/><stop offset="1" stop-color="#171119"/></radialGradient><linearGradient id="h" x1="0" y1="0" x2="1" y2="1"><stop stop-color="#4b3f50"/><stop offset="1" stop-color="#1b1724"/></linearGradient><filter id="s"><feGaussianBlur stdDeviation="15"/></filter></defs><rect width="600" height="640" fill="url(#b)"/><circle cx="300" cy="286" r="191" fill="none" stroke="#dd8bad" stroke-opacity=".1"/><ellipse cx="302" cy="538" rx="140" ry="19" fill="#08070d" filter="url(#s)"/><path d="M230 219c-45-124 182-123 139 0l60 30 69 175-55 27-71-113 13 169H212l11-169-63 113-58-27 69-175Z" fill="url(#h)" stroke="#86718b" stroke-width="2"/><path d="M236 214c-12-80 136-84 124 0l-61 58Z" fill="#1b1524" stroke="#69536e" stroke-width="3"/><path d="m243 221 52 58 63-58" fill="none" stroke="#a18da7" stroke-width="2"/><path d="m271 250-7 94m61-91 8 91" stroke="#bdabbf" stroke-width="3"/><path d="M259 402h78l28 66H231Z" fill="#312938" stroke="#64516a"/><path d="M212 495h173v17H212Zm-62-63 17 24-56 26-14-27Zm288 0 61 26-14 26-60-29Z" fill="#393041"/><path d="m297 304 8 17 19 7-19 7-8 19-7-19-19-7 19-7Z" fill="#c99bca"/><text x="300" y="378" text-anchor="middle" fill="#bda8c2" font-family="Arial,sans-serif" font-size="11" letter-spacing="6">OFF DUTY</text></svg>
